{"glyphs":{"0":{"ha":728,"x_min":21,"x_max":707,"o":"m 364 986 q 519 950 454 986 q 626 849 585 914 q 688 694 668 785 q 707 497 707 604 q 688 297 707 390 q 626 134 668 203 q 519 26 585 65 q 364 -14 454 -14 q 208 26 274 -14 q 101 134 143 65 q 40 297 60 203 q 21 497 21 390 q 40 694 21 604 q 101 849 60 785 q 208 950 143 914 q 364 986 274 986 m 225 497 q 235 304 225 390 q 263 158 244 218 q 306 65 281 97 q 364 32 332 32 q 422 65 396 32 q 465 158 447 97 q 493 304 483 218 q 503 497 503 390 q 466 826 503 713 q 364 940 429 940 q 262 826 299 940 q 225 497 225 713 z "},"1":{"ha":361,"x_min":19,"x_max":340,"o":"m 46 829 l 210 949 q 235 965 221 957 q 265 972 250 972 q 291 959 281 972 q 301 910 301 946 l 301 210 q 308 138 301 167 q 321 90 314 110 q 334 58 328 71 q 340 32 340 44 q 336 17 340 24 q 324 5 332 10 q 301 0 317 0 l 117 0 q 97 4 106 0 q 84 14 90 7 q 78 32 78 21 q 84 58 78 44 q 97 90 90 71 q 110 138 104 110 q 117 210 117 167 l 117 715 q 107 751 117 743 q 86 758 97 758 q 71 757 78 758 q 57 756 64 756 q 33 763 43 756 q 22 781 24 769 q 25 805 19 792 q 46 829 31 818 z "},"2":{"ha":665,"x_min":18,"x_max":644,"o":"m 51 185 q 176 327 108 265 q 303 450 244 389 q 401 581 361 511 q 440 749 440 651 q 433 822 440 788 q 414 883 426 857 q 384 925 401 910 q 344 940 367 940 q 302 924 321 940 q 267 885 283 908 q 237 834 251 861 q 206 783 222 807 q 169 744 189 760 q 124 728 149 728 q 57 755 76 728 q 38 808 38 782 q 58 875 38 843 q 118 932 79 907 q 215 972 157 957 q 344 986 272 986 q 467 971 411 986 q 562 926 522 956 q 623 851 601 896 q 644 746 644 806 q 624 623 644 675 q 569 529 603 571 q 491 451 535 488 q 401 376 447 415 q 311 292 356 338 q 232 185 267 246 l 386 185 q 474 205 439 185 q 533 250 508 225 q 574 295 557 275 q 608 315 592 315 q 621 311 615 315 q 628 283 629 306 q 624 228 628 260 q 612 162 619 197 q 597 97 604 126 q 583 47 589 67 q 578 26 578 26 q 545 5 568 10 q 507 0 522 0 l 96 0 q 49 18 67 0 q 24 64 31 36 q 24 124 18 92 q 51 185 31 156 z "},"3":{"ha":704,"x_min":21,"x_max":683,"o":"m 540 486 q 592 451 567 472 q 638 403 618 431 q 671 342 658 376 q 683 265 683 307 q 653 144 683 196 q 573 56 622 92 q 461 3 524 21 q 333 -14 399 -14 q 200 1 258 -14 q 102 40 142 15 q 42 97 63 65 q 21 164 21 129 q 40 217 21 190 q 107 244 60 244 q 152 228 132 244 q 189 189 172 213 q 221 138 206 165 q 253 88 236 111 q 289 48 269 64 q 333 32 308 32 q 378 44 353 32 q 426 82 404 56 q 464 149 449 108 q 479 249 479 190 q 476 306 479 275 q 462 365 472 338 q 431 410 451 392 q 376 428 411 428 q 343 448 354 431 q 332 486 332 465 q 343 525 332 507 q 376 544 354 543 q 428 567 406 546 q 463 624 447 585 q 479 740 479 664 q 470 819 479 782 q 446 883 461 856 q 411 925 431 910 q 369 940 392 940 q 327 924 346 940 q 292 885 308 908 q 262 834 276 861 q 231 783 247 807 q 194 744 214 760 q 149 728 174 728 q 82 755 101 728 q 63 808 63 782 q 83 875 63 843 q 143 932 104 907 q 240 972 182 957 q 369 986 297 986 q 494 969 436 986 q 593 918 551 951 q 659 835 635 885 q 683 724 683 786 q 671 644 683 681 q 638 577 658 607 q 592 524 618 547 q 540 486 567 501 z "},"4":{"ha":656,"x_min":21,"x_max":635,"o":"m 29 353 l 394 872 l 488 949 q 512 963 499 957 q 539 969 525 969 q 567 957 556 969 q 579 910 579 944 l 579 353 l 615 353 q 630 346 625 353 q 635 330 635 339 q 630 314 635 321 q 615 307 625 307 l 579 307 l 579 210 q 585 138 579 167 q 599 90 592 110 q 612 58 606 71 q 618 32 618 44 q 614 17 618 24 q 602 5 610 10 q 579 0 594 0 l 394 0 q 394 0 394 0 q 356 32 356 0 q 362 58 356 44 q 375 90 368 71 q 388 138 382 110 q 394 210 394 167 l 394 307 l 47 307 q 21 324 21 307 q 29 353 21 340 m 394 353 l 394 792 l 85 353 l 394 353 z "},"5":{"ha":649,"x_min":21,"x_max":628,"o":"m 114 757 q 97 749 101 757 q 92 735 92 742 l 92 611 q 93 590 92 601 q 101 579 94 579 q 179 591 138 586 q 267 596 221 596 q 395 583 331 596 q 511 534 460 569 q 595 438 563 499 q 628 283 628 378 q 607 163 628 218 q 546 69 586 108 q 448 8 506 29 q 315 -14 390 -14 q 185 1 240 -14 q 92 39 129 15 q 38 94 56 63 q 21 161 21 126 q 40 215 21 188 q 107 242 60 242 q 168 209 144 242 q 211 137 192 176 q 254 65 231 97 q 315 32 278 32 q 365 56 344 32 q 398 115 385 79 q 417 190 411 150 q 424 265 424 231 q 406 363 424 325 q 358 422 388 400 q 293 451 329 443 q 221 458 257 458 q 167 455 193 458 q 122 449 142 451 q 79 438 99 443 q 53 451 60 438 q 46 481 46 465 l 46 904 q 56 931 46 919 q 90 942 65 942 l 429 942 q 486 947 463 942 q 526 957 510 951 q 556 967 543 963 q 578 972 568 972 q 596 967 589 972 q 605 929 607 958 q 596 867 603 900 q 581 809 589 835 q 572 783 572 783 q 540 762 563 767 q 501 757 517 757 l 114 757 z "},"6":{"ha":728,"x_min":21,"x_max":707,"o":"m 21 453 q 54 670 21 572 q 146 838 88 768 q 283 947 204 908 q 451 986 361 986 q 541 969 501 986 q 609 928 581 953 q 654 878 638 904 q 675 833 671 853 q 663 786 682 804 q 619 768 643 768 q 585 778 601 768 q 563 814 569 789 q 547 860 557 838 q 522 900 536 882 q 490 929 507 918 q 451 940 472 940 q 394 919 425 940 q 334 858 364 899 q 279 759 304 818 q 240 622 254 700 q 328 676 282 658 q 418 693 374 693 q 527 669 475 693 q 619 599 579 644 q 683 490 658 554 q 707 349 707 426 q 673 178 707 247 q 590 66 639 108 q 483 5 540 24 q 381 -14 426 -14 q 215 23 283 -14 q 104 124 147 60 q 41 272 61 188 q 21 453 21 357 m 225 453 q 235 279 225 357 q 264 147 244 201 q 313 62 283 92 q 381 32 342 32 q 437 60 414 32 q 474 132 460 88 q 496 233 489 176 q 503 349 503 290 q 492 468 503 418 q 461 550 481 518 q 416 597 442 582 q 361 613 390 613 q 229 542 293 613 q 225 453 225 500 z "},"7":{"ha":690,"x_min":22,"x_max":672,"o":"m 72 946 q 105 967 82 963 q 143 972 128 972 l 571 972 q 635 956 613 972 q 665 913 658 939 q 668 854 672 888 q 651 788 664 821 l 447 210 q 432 141 433 169 q 435 92 431 113 q 447 58 440 72 q 453 32 453 44 q 449 17 453 24 q 437 5 444 10 q 414 0 429 0 l 213 0 q 193 4 201 0 q 178 14 185 7 q 172 32 172 21 q 187 99 172 56 q 244 210 201 142 l 592 753 q 599 776 599 764 q 581 788 599 788 l 236 788 q 164 767 193 788 q 113 722 135 747 q 75 677 92 697 q 42 657 58 657 q 29 661 36 657 q 22 690 22 667 q 26 744 22 713 q 38 810 31 775 q 53 876 46 846 q 67 926 61 906 q 72 946 72 946 z "},"8":{"ha":756,"x_min":21,"x_max":735,"o":"m 21 269 q 41 377 21 332 q 94 453 61 422 q 166 501 126 483 q 243 529 206 519 q 178 560 210 542 q 120 606 146 579 q 78 666 94 632 q 63 743 63 700 q 94 860 63 814 q 174 935 126 907 q 276 975 221 964 q 378 986 332 986 q 479 975 424 986 q 582 935 535 964 q 661 860 629 907 q 693 743 693 814 q 677 666 693 700 q 635 606 661 632 q 578 560 610 579 q 513 529 546 542 q 590 501 550 519 q 662 453 629 483 q 715 377 694 422 q 735 269 735 332 q 712 154 735 201 q 653 75 689 107 q 574 26 617 43 q 491 -1 531 8 q 420 -12 451 -10 q 378 -14 389 -14 q 335 -12 367 -14 q 265 -1 304 -10 q 182 26 225 8 q 103 75 139 43 q 44 154 67 107 q 21 269 21 201 m 225 269 q 244 141 225 189 q 290 69 264 93 q 340 39 315 46 q 378 32 365 32 q 415 39 390 32 q 466 69 440 46 q 511 141 492 93 q 531 269 531 189 q 510 397 531 351 q 464 466 490 443 q 413 494 438 489 q 378 500 388 500 q 343 494 368 500 q 292 466 318 489 q 245 397 265 443 q 225 269 225 351 m 378 546 q 413 560 393 546 q 449 599 432 574 q 477 662 465 625 q 489 743 489 699 q 459 887 489 833 q 378 940 429 940 q 297 887 326 940 q 267 743 267 833 q 278 662 267 699 q 307 599 290 625 q 343 560 324 574 q 378 546 363 546 z "},"9":{"ha":728,"x_min":21,"x_max":707,"o":"m 21 624 q 55 794 21 725 q 138 906 89 864 q 244 967 188 949 q 347 986 301 986 q 513 949 444 986 q 624 849 581 913 q 687 700 667 785 q 707 519 707 615 q 674 303 707 401 q 582 134 640 204 q 445 25 524 64 q 276 -14 367 -14 q 187 3 226 -14 q 119 44 147 19 q 74 94 90 68 q 53 139 57 121 q 65 186 46 168 q 108 204 85 204 q 142 194 126 204 q 165 158 158 183 q 181 113 171 136 q 206 72 192 90 q 238 43 221 54 q 276 32 256 32 q 333 53 303 32 q 394 114 364 74 q 449 213 424 154 q 488 350 474 272 q 400 297 446 314 q 310 279 354 279 q 201 303 254 279 q 109 373 149 328 q 45 482 69 418 q 21 624 21 546 m 225 624 q 236 504 225 554 q 267 422 247 454 q 312 375 286 390 q 367 360 338 360 q 499 431 435 360 q 503 519 503 472 q 493 693 503 615 q 464 826 483 771 q 415 910 444 881 q 347 940 386 940 q 291 913 314 940 q 253 840 268 885 q 232 739 239 796 q 225 624 225 682 z "},"\u0000":{"ha":0,"x_min":0,"x_max":0,"o":""},"\r":{"ha":347,"x_min":0,"x_max":0,"o":""}," ":{"ha":347,"x_min":0,"x_max":0,"o":""},"a":{"ha":643,"x_min":21,"x_max":622,"o":"m 313 460 q 354 482 333 469 q 392 506 375 494 q 367 617 386 572 q 311 663 347 663 q 267 635 289 663 q 222 574 246 607 q 169 514 199 542 q 103 486 140 486 q 45 510 63 486 q 28 561 28 535 q 49 624 28 596 q 107 670 69 651 q 197 699 144 689 q 311 708 249 708 q 481 666 429 708 q 547 546 533 624 q 553 494 550 529 q 558 417 556 460 q 564 328 561 375 q 569 241 567 282 q 574 167 571 200 q 579 121 576 135 q 590 95 582 106 q 604 75 597 85 q 617 56 611 65 q 622 32 622 46 q 610 8 622 17 q 582 0 599 0 l 407 0 q 383 9 394 0 q 367 38 372 18 q 295 -1 336 14 q 215 -15 254 -15 q 135 2 171 -15 q 74 48 99 19 q 35 112 49 76 q 21 185 21 147 q 48 295 21 251 q 117 368 75 339 q 212 418 160 397 q 313 460 264 439 m 364 100 q 380 237 369 160 q 394 418 390 314 l 394 442 q 367 422 383 433 q 331 397 350 411 q 294 367 313 385 q 260 326 275 350 q 235 271 244 303 q 225 197 225 239 q 228 162 225 182 q 238 123 231 142 q 260 91 246 104 q 297 78 274 78 q 333 84 317 78 q 364 100 349 90 z "},"b":{"ha":693,"x_min":17,"x_max":672,"o":"m 57 944 l 150 1021 q 174 1035 160 1029 q 201 1042 188 1042 q 230 1029 218 1042 q 242 982 242 1017 l 242 643 q 314 691 275 674 q 397 708 353 708 q 504 679 454 708 q 592 600 554 650 q 651 485 629 550 q 672 349 672 419 q 651 211 672 276 q 592 96 629 146 q 504 16 554 46 q 397 -14 454 -14 q 311 5 353 -14 q 236 58 269 24 q 218 42 231 53 q 188 23 206 32 q 149 7 171 14 q 100 0 126 0 q 63 15 68 0 q 57 61 57 29 l 57 831 q 21 888 25 864 q 57 944 17 913 m 242 124 q 288 80 263 96 q 342 64 314 64 q 403 91 379 64 q 442 160 428 118 q 463 252 457 201 q 468 349 468 303 q 463 444 468 394 q 442 535 457 494 q 403 603 428 576 q 342 631 379 631 q 288 615 314 631 q 242 572 263 599 l 242 124 z "},"c":{"ha":596,"x_min":21,"x_max":581,"o":"m 350 708 q 428 699 389 708 q 501 670 468 689 q 553 624 533 651 q 574 561 574 596 q 551 510 574 535 q 489 486 529 486 q 448 499 464 486 q 422 532 432 513 q 404 574 411 551 q 390 617 397 597 q 374 649 383 636 q 350 663 365 663 q 312 644 333 663 q 271 585 290 625 q 238 487 251 546 q 225 346 225 428 q 238 211 225 269 q 269 113 250 153 q 310 53 288 74 q 350 32 332 32 q 388 43 371 32 q 419 72 406 54 q 444 113 433 90 q 461 158 456 136 q 484 194 468 183 q 518 204 500 204 q 561 186 542 204 q 574 139 581 168 q 553 94 569 121 q 508 44 536 68 q 440 3 479 19 q 350 -14 400 -14 q 208 14 269 -14 q 106 90 147 42 q 42 204 64 139 q 21 346 21 269 q 42 494 21 428 q 106 608 64 561 q 208 682 147 656 q 350 708 269 708 z "},"d":{"ha":696,"x_min":21,"x_max":675,"o":"m 296 708 q 379 691 340 708 q 451 643 418 674 l 451 831 q 415 888 419 864 q 451 944 411 913 l 544 1021 q 568 1035 554 1029 q 596 1042 582 1042 q 624 1029 613 1042 q 636 982 636 1017 l 636 210 q 642 138 636 167 q 656 90 649 110 q 669 58 663 71 q 675 32 675 44 q 636 0 675 0 l 494 0 q 458 13 465 0 q 451 53 451 25 q 379 3 418 21 q 296 -14 340 -14 q 189 16 239 -14 q 101 96 139 46 q 42 211 64 146 q 21 349 21 276 q 42 485 21 419 q 101 600 64 550 q 189 679 139 650 q 296 708 239 708 m 225 349 q 231 252 225 303 q 251 160 236 201 q 290 91 265 118 q 351 64 314 64 q 405 80 379 64 q 451 124 431 96 l 451 572 q 405 615 431 599 q 351 631 379 631 q 290 603 314 631 q 251 535 265 576 q 231 444 236 494 q 225 349 225 394 z "},"e":{"ha":621,"x_min":21,"x_max":600,"o":"m 21 360 q 103 616 21 524 q 340 708 186 708 q 434 697 388 708 q 517 659 481 685 q 577 592 554 633 q 600 493 600 551 q 581 410 600 442 q 529 362 561 379 q 456 338 497 344 q 371 332 415 332 l 225 332 q 238 194 225 251 q 269 101 250 136 q 310 49 288 65 q 350 32 332 32 q 392 44 372 32 q 428 74 411 56 q 458 117 444 93 q 479 165 471 142 q 503 199 488 189 q 536 208 519 208 q 580 189 561 208 q 589 139 599 169 q 563 90 582 117 q 513 41 543 64 q 441 2 482 18 q 350 -14 400 -14 q 208 16 269 -14 q 106 97 147 46 q 42 216 64 149 q 21 360 21 283 m 226 378 l 315 378 q 356 389 340 378 q 380 417 371 400 q 392 456 389 435 q 396 499 396 478 q 393 557 396 528 q 383 610 390 586 q 366 648 376 633 q 340 663 356 663 q 306 644 325 663 q 271 590 288 626 q 242 501 254 554 q 226 378 229 449 z "},"f":{"ha":719,"x_min":21,"x_max":699,"o":"m 44 694 l 142 694 l 142 768 q 166 892 142 839 q 232 983 190 946 q 331 1038 274 1019 q 451 1056 388 1056 q 544 1048 500 1056 q 623 1024 589 1040 q 678 982 657 1007 q 699 922 699 957 q 676 872 699 896 q 614 847 654 847 q 573 859 589 847 q 546 889 557 871 q 527 928 535 907 q 510 968 519 950 q 487 998 500 986 q 451 1010 474 1010 q 404 999 426 1010 q 365 960 382 988 q 337 885 347 932 q 326 768 326 839 l 326 694 l 424 694 q 442 688 436 694 q 447 672 447 681 q 442 656 447 663 q 424 649 436 649 l 326 649 l 326 210 q 333 138 326 167 q 346 90 339 110 q 359 58 353 71 q 365 32 365 44 q 361 17 365 24 q 349 5 357 10 q 326 0 342 0 l 142 0 q 122 4 131 0 q 109 14 115 7 q 103 32 103 21 q 109 58 103 44 q 122 90 115 71 q 135 138 129 110 q 142 210 142 167 l 142 649 l 44 649 q 26 656 32 649 q 21 672 21 663 q 26 688 21 681 q 44 694 32 694 z "},"g":{"ha":715,"x_min":-24,"x_max":694,"o":"m 61 -142 q 102 -153 86 -142 q 131 -183 118 -165 q 155 -222 143 -201 q 183 -260 167 -242 q 223 -290 199 -278 q 285 -301 247 -301 q 379 -285 342 -301 q 440 -244 417 -269 q 474 -189 464 -219 q 483 -129 483 -158 q 463 -62 483 -89 q 404 -17 442 -35 q 315 10 367 0 q 200 26 263 19 q 105 69 129 33 q 100 150 81 106 q 123 198 114 181 q 135 222 132 215 q 55 303 86 251 q 24 438 24 354 q 50 563 24 513 q 117 644 76 613 q 208 690 158 675 q 306 707 258 704 q 317 745 308 715 q 348 807 326 775 q 407 864 369 839 q 503 889 444 889 q 564 881 531 889 q 626 857 597 874 q 675 815 656 840 q 694 756 694 790 q 672 705 694 729 q 610 681 650 681 q 569 692 585 681 q 545 719 554 703 q 531 755 536 736 q 518 790 525 774 q 501 818 511 807 q 471 829 490 829 q 417 813 439 829 q 381 776 394 797 q 361 736 368 756 q 353 708 354 717 q 454 694 401 707 q 551 650 507 681 q 625 568 596 619 q 654 438 654 517 q 624 305 654 357 q 546 224 593 253 q 443 183 499 194 q 339 172 388 172 q 260 178 301 172 q 179 200 219 185 q 168 172 174 188 q 158 143 163 157 q 174 129 156 132 q 228 126 192 126 q 279 127 251 126 q 340 128 307 128 q 519 106 451 128 q 626 52 588 85 q 678 -19 665 19 q 692 -92 692 -57 q 667 -189 692 -149 q 606 -258 643 -229 q 522 -303 568 -286 q 430 -331 475 -321 q 346 -344 385 -340 q 285 -347 307 -347 q 56 -317 135 -347 q -24 -217 -24 -287 q -1 -166 -24 -190 q 61 -142 21 -142 m 228 438 q 239 324 228 367 q 267 257 250 281 q 303 226 283 233 q 339 218 322 218 q 375 226 356 218 q 411 257 394 233 q 439 324 428 281 q 450 438 450 367 q 439 552 450 508 q 411 621 428 596 q 375 654 394 646 q 339 663 356 663 q 303 654 322 663 q 267 621 283 646 q 239 552 250 596 q 228 438 228 508 z "},"h":{"ha":708,"x_min":21,"x_max":688,"o":"m 60 944 l 153 1021 q 176 1035 163 1029 q 204 1042 190 1042 q 233 1029 221 1042 q 244 982 244 1017 l 244 606 q 324 679 281 650 q 426 708 368 708 q 546 666 493 708 q 613 546 599 624 q 618 494 615 529 q 624 417 621 460 q 629 328 626 375 q 634 241 632 282 q 639 167 636 200 q 644 121 642 135 q 655 95 647 106 q 669 75 663 85 q 682 56 676 65 q 688 32 688 46 q 676 8 688 17 q 647 0 664 0 l 472 0 q 440 17 454 0 q 428 72 426 33 q 443 218 431 135 q 460 418 456 301 q 462 506 461 467 q 456 574 463 546 q 435 617 450 601 q 390 633 419 633 q 317 603 357 633 q 244 524 278 572 l 244 210 q 251 138 244 167 q 264 90 257 110 q 277 58 271 71 q 283 32 283 44 q 279 17 283 24 q 267 5 275 10 q 244 0 260 0 l 60 0 q 21 32 21 0 q 27 58 21 44 q 40 90 33 71 q 53 138 47 110 q 60 210 60 167 l 60 831 q 52 869 60 854 q 40 895 44 883 q 38 917 35 907 q 60 944 40 928 z "},"i":{"ha":304,"x_min":19,"x_max":283,"o":"m 60 592 l 153 668 q 178 686 164 678 q 208 694 193 694 q 234 681 224 694 q 244 629 244 667 l 244 210 q 251 138 244 167 q 264 90 257 110 q 277 58 271 71 q 283 32 283 44 q 279 17 283 24 q 267 5 275 10 q 244 0 260 0 l 60 0 q 40 4 49 0 q 27 14 33 7 q 21 32 21 21 q 27 58 21 44 q 40 90 33 71 q 53 138 47 110 q 60 210 60 167 l 60 478 q 24 535 28 511 q 60 592 19 560 m 153 1042 q 242 1004 206 1042 q 278 914 278 967 q 268 865 278 888 q 242 824 258 842 q 202 797 225 807 q 153 788 179 788 q 63 824 100 788 q 26 914 26 861 q 36 963 26 940 q 63 1003 46 986 q 103 1031 81 1021 q 153 1042 126 1042 z "},"j":{"ha":293,"x_min":-183,"x_max":272,"o":"m -183 -210 q -159 -156 -183 -174 q -106 -139 -135 -139 q -56 -155 -78 -139 q -35 -203 -35 -171 q -33 -273 -35 -244 q -18 -301 -32 -301 q 31 -262 13 -301 q 58 -167 49 -224 q 69 -49 67 -111 q 72 57 72 13 l 72 478 q 36 535 40 511 q 72 592 32 560 l 165 668 q 194 687 179 679 q 221 694 208 694 q 247 680 236 694 q 257 629 257 665 l 257 57 q 256 -27 257 18 q 249 -117 256 -72 q 226 -203 242 -162 q 179 -276 210 -244 q 101 -328 149 -308 q -18 -347 53 -347 q -69 -340 -40 -347 q -123 -316 -97 -332 q -166 -274 -149 -300 q -183 -210 -183 -247 m 21 914 q 31 963 21 940 q 58 1003 40 986 q 98 1031 75 1021 q 147 1042 121 1042 q 236 1004 200 1042 q 272 914 272 967 q 263 865 272 888 q 236 824 253 842 q 197 797 219 807 q 147 788 174 788 q 58 824 94 788 q 21 914 21 861 z "},"k":{"ha":706,"x_min":19,"x_max":685,"o":"m 60 944 l 153 1021 q 176 1035 163 1029 q 204 1042 190 1042 q 233 1029 221 1042 q 244 982 244 1017 l 244 431 q 358 455 311 439 q 434 494 404 471 q 479 549 464 518 q 499 614 494 579 q 494 646 501 632 q 486 671 486 660 q 492 683 486 678 q 502 691 494 688 q 525 694 510 694 l 608 694 q 647 671 647 694 q 642 649 647 657 q 631 622 638 640 q 596 547 619 581 q 540 489 572 514 q 469 446 507 464 q 390 415 431 428 q 494 352 451 394 q 564 263 536 310 q 608 176 592 217 q 631 117 624 135 q 647 91 638 101 q 664 72 656 81 q 678 55 672 64 q 685 32 685 46 q 672 6 685 13 q 643 0 660 0 l 468 0 q 440 17 450 0 q 424 72 431 35 q 401 168 415 117 q 364 264 386 219 q 312 338 342 308 q 244 368 282 368 l 244 210 q 251 138 244 167 q 264 90 257 110 q 277 58 271 71 q 283 32 283 44 q 279 17 283 24 q 267 5 275 10 q 244 0 260 0 l 60 0 q 21 32 21 0 q 27 58 21 44 q 40 90 33 71 q 53 138 47 110 q 60 210 60 167 l 60 831 q 24 888 28 864 q 60 944 19 913 z "},"l":{"ha":304,"x_min":21,"x_max":283,"o":"m 60 944 l 153 1021 q 176 1035 163 1029 q 204 1042 190 1042 q 233 1029 221 1042 q 244 982 244 1017 l 244 210 q 251 138 244 167 q 264 90 257 110 q 277 58 271 71 q 283 32 283 44 q 279 17 283 24 q 267 5 275 10 q 244 0 260 0 l 60 0 q 40 4 49 0 q 27 14 33 7 q 21 32 21 21 q 27 58 21 44 q 40 90 33 71 q 53 138 47 110 q 60 210 60 167 l 60 831 q 52 869 60 854 q 40 895 44 883 q 38 917 35 907 q 60 944 40 928 z "},"m":{"ha":1028,"x_min":21,"x_max":1007,"o":"m 60 597 l 153 674 q 176 688 163 682 q 204 694 190 694 q 229 685 218 694 q 243 649 240 675 q 308 692 274 676 q 385 708 343 708 q 486 679 440 708 q 556 596 532 650 q 639 676 593 644 q 746 708 685 708 q 865 666 813 708 q 932 546 918 624 q 938 494 935 529 q 943 417 940 460 q 949 328 946 375 q 953 241 951 282 q 958 167 956 200 q 964 121 961 135 q 974 95 967 106 q 989 75 982 85 q 1001 56 996 65 q 1007 32 1007 46 q 995 8 1007 17 q 967 0 983 0 l 792 0 q 760 17 774 0 q 747 72 746 33 q 763 218 750 135 q 779 418 775 301 q 781 506 781 467 q 776 574 782 546 q 754 617 769 601 q 710 633 739 633 q 641 607 678 633 q 572 536 604 581 q 578 480 575 515 q 583 403 581 444 q 588 317 586 361 q 592 233 590 272 q 597 165 594 194 q 603 121 600 135 q 613 95 606 106 q 628 75 621 85 q 640 56 635 65 q 646 32 646 46 q 634 8 646 17 q 606 0 622 0 l 431 0 q 399 17 413 0 q 386 72 385 33 q 401 218 389 135 q 418 418 414 301 q 420 506 419 467 q 415 574 421 546 q 393 617 408 601 q 349 633 378 633 q 298 618 325 633 q 244 575 271 603 l 244 210 q 251 138 244 167 q 264 90 257 110 q 277 58 271 71 q 283 32 283 44 q 279 17 283 24 q 267 5 275 10 q 244 0 260 0 l 60 0 q 21 32 21 0 q 27 58 21 44 q 40 90 33 71 q 53 138 47 110 q 60 210 60 167 l 60 483 q 52 522 60 507 q 40 548 44 536 q 38 570 35 560 q 60 597 40 581 z "},"n":{"ha":708,"x_min":21,"x_max":688,"o":"m 60 597 l 153 674 q 176 688 163 682 q 204 694 190 694 q 233 682 221 694 q 244 635 244 669 l 244 606 q 324 679 281 650 q 426 708 368 708 q 546 666 493 708 q 613 546 599 624 q 618 494 615 529 q 624 417 621 460 q 629 328 626 375 q 634 241 632 282 q 639 167 636 200 q 644 121 642 135 q 655 95 647 106 q 669 75 663 85 q 682 56 676 65 q 688 32 688 46 q 676 8 688 17 q 647 0 664 0 l 472 0 q 440 17 454 0 q 428 72 426 33 q 443 218 431 135 q 460 418 456 301 q 462 506 461 467 q 456 574 463 546 q 435 617 450 601 q 390 633 419 633 q 317 603 357 633 q 244 524 278 572 l 244 210 q 251 138 244 167 q 264 90 257 110 q 277 58 271 71 q 283 32 283 44 q 279 17 283 24 q 267 5 275 10 q 244 0 260 0 l 60 0 q 21 32 21 0 q 27 58 21 44 q 40 90 33 71 q 53 138 47 110 q 60 210 60 167 l 60 483 q 52 522 60 507 q 40 548 44 536 q 38 570 35 560 q 60 597 40 581 z "},"o":{"ha":700,"x_min":21,"x_max":679,"o":"m 350 708 q 492 683 431 708 q 594 609 553 657 q 658 495 636 561 q 679 347 679 429 q 658 200 679 267 q 594 85 636 133 q 492 12 553 38 q 350 -14 431 -14 q 208 12 269 -14 q 106 85 147 38 q 42 200 64 133 q 21 347 21 267 q 42 495 21 429 q 106 609 64 561 q 208 683 147 657 q 350 708 269 708 m 225 347 q 236 207 225 267 q 265 108 247 147 q 306 51 283 69 q 350 32 328 32 q 394 51 372 32 q 435 108 417 69 q 464 207 453 147 q 475 347 475 267 q 464 488 475 429 q 435 586 453 547 q 394 644 417 625 q 350 663 372 663 q 306 644 328 663 q 265 586 283 625 q 236 488 247 547 q 225 347 225 429 z "},"p":{"ha":696,"x_min":19,"x_max":675,"o":"m 60 596 l 153 672 q 178 688 164 681 q 207 694 193 694 q 233 683 222 694 q 244 642 244 672 q 317 691 278 674 q 400 708 356 708 q 507 678 457 708 q 594 599 557 649 q 653 483 632 549 q 675 346 675 418 q 653 210 675 275 q 594 94 632 144 q 507 15 557 44 q 400 -14 457 -14 q 317 3 356 -14 q 244 51 278 21 l 244 -137 q 251 -209 244 -181 q 264 -257 257 -237 q 277 -290 271 -276 q 283 -315 283 -303 q 244 -347 283 -347 l 60 -347 q 40 -343 49 -347 q 27 -334 33 -340 q 21 -315 21 -328 q 27 -290 21 -303 q 40 -257 33 -276 q 53 -209 47 -237 q 60 -137 60 -181 l 60 482 q 24 540 28 515 q 60 596 19 564 m 344 64 q 406 91 382 64 q 445 159 431 118 q 465 250 460 200 q 471 346 471 300 q 465 442 471 392 q 445 535 460 493 q 406 603 431 576 q 344 631 382 631 q 291 615 317 631 q 244 571 265 599 l 244 122 q 291 80 265 96 q 344 64 317 64 z "},"q":{"ha":696,"x_min":21,"x_max":675,"o":"m 296 708 q 382 690 340 708 q 457 636 424 671 q 476 653 464 643 q 505 672 488 663 q 544 688 522 681 q 593 694 567 694 q 631 680 625 694 q 636 633 636 665 l 636 -137 q 642 -209 636 -181 q 656 -257 649 -237 q 669 -290 663 -276 q 675 -315 675 -303 q 636 -347 675 -347 l 451 -347 q 432 -343 440 -347 q 419 -334 425 -340 q 413 -315 413 -328 q 419 -290 413 -303 q 432 -257 425 -276 q 445 -209 439 -237 q 451 -137 451 -181 l 451 51 q 379 3 418 21 q 296 -14 340 -14 q 189 15 239 -14 q 101 94 139 44 q 42 210 64 144 q 21 346 21 275 q 42 483 21 418 q 101 599 64 549 q 189 678 139 649 q 296 708 239 708 m 351 64 q 405 80 379 64 q 451 122 431 96 l 451 571 q 405 615 431 599 q 351 631 379 631 q 290 603 314 631 q 251 535 265 576 q 231 442 236 493 q 225 346 225 392 q 231 250 225 300 q 251 159 236 200 q 290 91 265 118 q 351 64 314 64 z "},"r":{"ha":643,"x_min":21,"x_max":622,"o":"m 60 597 l 153 674 q 176 688 163 682 q 204 694 190 694 q 233 682 221 694 q 244 635 244 669 l 244 628 q 323 686 281 664 q 418 708 365 708 q 486 699 450 708 q 553 670 522 689 q 603 624 583 651 q 622 561 622 596 q 600 510 622 535 q 538 486 578 486 q 480 509 500 486 q 446 560 460 532 q 420 610 432 588 q 385 633 408 633 q 318 610 356 633 q 244 550 281 588 l 244 210 q 251 138 244 167 q 264 90 257 110 q 277 58 271 71 q 283 32 283 44 q 279 17 283 24 q 267 5 275 10 q 244 0 260 0 l 60 0 q 21 32 21 0 q 27 58 21 44 q 40 90 33 71 q 53 138 47 110 q 60 210 60 167 l 60 483 q 52 522 60 507 q 40 548 44 536 q 38 570 35 560 q 60 597 40 581 z "},"s":{"ha":585,"x_min":21,"x_max":564,"o":"m 106 225 q 147 210 131 225 q 175 175 164 196 q 196 128 186 154 q 217 82 206 103 q 244 47 228 61 q 285 32 260 32 q 320 41 304 32 q 347 64 336 50 q 365 96 358 78 q 371 132 371 114 q 345 199 371 169 q 281 256 319 229 q 197 310 242 283 q 114 365 153 336 q 49 430 75 394 q 24 511 24 465 q 52 603 24 565 q 122 664 81 640 q 211 698 164 688 q 297 708 258 708 q 407 696 358 708 q 490 661 456 683 q 544 609 525 639 q 563 544 563 579 q 540 494 563 518 q 478 469 518 469 q 436 484 453 469 q 408 519 419 499 q 388 566 397 540 q 367 613 378 592 q 340 648 356 633 q 299 663 324 663 q 263 653 279 663 q 236 631 247 644 q 219 599 225 617 q 213 563 213 581 q 238 494 213 525 q 303 436 264 464 q 388 381 343 408 q 473 324 433 354 q 538 258 513 293 q 564 176 564 222 q 535 86 564 122 q 463 28 506 50 q 373 -4 421 6 q 286 -14 325 -14 q 177 -1 226 -14 q 93 33 128 11 q 40 85 58 56 q 21 150 21 115 q 43 201 21 176 q 106 225 65 225 z "},"t":{"ha":553,"x_min":21,"x_max":533,"o":"m 44 694 l 142 694 l 142 761 q 106 819 110 794 q 142 875 101 843 l 235 951 q 258 966 244 960 q 286 972 272 972 q 315 960 303 972 q 326 913 326 947 l 326 694 l 424 694 q 442 688 436 694 q 447 672 447 681 q 442 656 447 663 q 424 649 436 649 l 326 649 l 326 297 q 327 233 326 275 q 332 151 328 192 q 344 79 336 110 q 368 49 353 49 q 403 83 396 49 q 414 165 410 117 q 434 207 417 193 q 472 221 451 221 q 515 203 496 221 q 531 154 533 186 q 517 106 529 132 q 481 56 504 79 q 420 16 457 32 q 332 0 383 0 q 245 15 279 0 q 190 56 211 31 q 158 113 168 81 q 144 178 149 144 q 141 242 140 211 q 142 297 142 274 l 142 649 l 44 649 q 26 656 32 649 q 21 672 21 663 q 26 688 21 681 q 44 694 32 694 z "},"u":{"ha":682,"x_min":17,"x_max":661,"o":"m 57 594 l 150 671 q 174 688 160 681 q 201 694 188 694 q 230 681 218 694 q 242 632 242 668 l 242 172 q 242 132 242 151 q 248 97 243 113 q 263 71 253 81 q 292 61 274 61 q 365 92 325 61 q 438 171 404 122 l 438 481 q 401 538 406 514 q 438 594 397 563 l 531 671 q 556 687 542 679 q 583 694 569 694 q 610 681 599 694 q 622 632 622 668 l 622 210 q 628 138 622 167 q 642 90 635 110 q 655 58 649 71 q 661 32 661 44 q 622 0 661 0 l 481 0 q 443 15 449 0 q 438 61 438 29 l 438 89 q 358 15 401 44 q 256 -14 314 -14 q 169 -6 206 -14 q 107 24 132 3 q 69 79 82 44 q 57 167 57 114 l 57 481 q 21 538 25 514 q 57 594 17 563 z "},"v":{"ha":744,"x_min":21,"x_max":724,"o":"m 261 694 q 281 690 272 694 q 294 681 288 688 q 300 663 300 675 q 297 638 300 650 q 294 608 294 626 q 297 560 293 589 q 315 485 301 531 l 442 69 l 554 485 q 559 553 565 525 q 542 601 553 581 q 519 636 531 622 q 507 663 507 650 q 513 679 507 671 q 523 690 515 685 q 546 694 531 694 l 685 694 q 704 690 696 694 q 717 681 711 688 q 724 663 724 675 q 709 637 724 650 q 674 603 694 624 q 633 555 654 583 q 601 485 613 526 l 490 72 q 472 21 482 42 q 440 0 461 0 l 303 0 q 249 69 271 0 l 122 485 q 92 555 110 526 q 59 603 75 583 q 32 636 43 622 q 21 663 21 650 q 26 679 21 671 q 37 690 29 685 q 60 694 44 694 l 261 694 z "},"w":{"ha":1192,"x_min":21,"x_max":1171,"o":"m 21 663 q 26 679 21 671 q 37 690 29 685 q 60 694 44 694 l 261 694 q 300 663 300 694 q 297 638 300 650 q 294 608 294 626 q 297 560 293 589 q 315 485 301 531 l 442 69 l 554 485 q 558 499 557 492 q 560 513 558 506 q 531 569 547 546 q 501 610 515 593 q 478 639 488 626 q 468 663 468 651 q 474 679 468 671 q 484 690 476 685 q 507 694 492 694 l 708 694 q 747 663 747 694 q 744 638 747 650 q 741 608 742 626 q 744 560 740 589 q 763 485 749 531 l 889 69 l 1001 485 q 1006 553 1013 525 q 989 601 1000 581 q 966 636 978 622 q 954 663 954 650 q 960 679 954 671 q 970 690 963 685 q 993 694 978 694 l 1132 694 q 1171 663 1171 694 q 1156 637 1171 650 q 1122 603 1142 624 q 1081 555 1101 583 q 1049 485 1060 526 l 938 72 q 919 21 929 42 q 888 0 908 0 l 750 0 q 696 69 718 0 l 586 429 l 490 72 q 472 21 482 42 q 440 0 461 0 l 303 0 q 249 69 271 0 l 122 485 q 92 555 110 526 q 59 603 75 583 q 32 636 43 622 q 21 663 21 650 z "},"x":{"ha":706,"x_min":21,"x_max":685,"o":"m 60 694 l 261 694 q 281 690 272 694 q 294 681 288 688 q 300 663 300 675 q 327 547 300 608 q 394 422 354 485 l 435 485 q 465 555 461 526 q 462 603 468 583 q 446 637 456 624 q 436 663 436 650 q 475 694 436 694 l 614 694 q 633 690 625 694 q 647 681 640 688 q 653 663 653 675 q 639 639 653 650 q 602 610 625 628 q 550 563 579 592 q 489 485 521 533 l 422 382 q 510 266 464 322 q 596 163 557 210 q 660 81 635 115 q 685 32 685 47 q 646 0 685 0 l 444 0 q 425 4 433 0 q 412 14 418 7 q 406 32 406 21 q 377 143 406 82 q 306 269 349 204 l 267 210 q 236 140 240 168 q 239 92 232 111 q 256 58 246 72 q 265 32 265 44 q 226 0 265 0 l 88 0 q 68 4 76 0 q 55 14 61 7 q 49 32 49 21 q 63 56 49 44 q 99 85 76 67 q 152 132 122 103 q 213 210 182 161 l 278 311 q 191 427 236 371 q 108 531 146 483 q 45 613 69 578 q 21 663 21 647 q 60 694 21 694 z "},"y":{"ha":774,"x_min":21,"x_max":753,"o":"m 60 694 l 260 694 q 279 690 271 694 q 292 681 286 688 q 299 663 299 675 q 293 623 299 644 q 299 579 288 601 l 467 208 l 565 485 q 574 556 581 528 q 552 604 567 585 q 523 637 538 624 q 508 663 508 650 q 547 694 508 694 l 714 694 q 733 690 725 694 q 747 681 740 688 q 753 663 753 675 q 739 640 753 650 q 704 613 725 631 q 660 565 683 594 q 615 485 636 535 q 550 308 582 401 q 485 122 518 214 q 419 -56 453 29 q 350 -205 386 -140 q 274 -308 314 -269 q 190 -347 235 -347 q 140 -340 168 -347 q 85 -316 111 -332 q 42 -274 60 -300 q 25 -210 25 -247 q 49 -156 25 -174 q 103 -139 74 -139 q 152 -155 131 -139 q 174 -203 174 -171 q 175 -273 174 -244 q 190 -301 176 -301 q 239 -281 215 -301 q 285 -226 263 -261 q 331 -142 308 -190 q 375 -37 353 -94 l 114 540 q 92 572 107 556 q 60 604 76 589 q 33 635 44 619 q 21 663 21 650 q 60 694 21 694 z "},"z":{"ha":706,"x_min":21,"x_max":685,"o":"m 21 32 q 49 85 21 49 q 121 172 78 122 q 213 282 164 222 q 306 404 263 342 q 377 530 349 467 q 406 649 406 593 l 332 649 q 276 621 294 649 q 242 559 257 593 q 209 497 228 525 q 153 469 190 469 q 90 494 113 469 q 68 544 68 518 q 140 655 68 615 q 333 694 211 694 l 646 694 q 665 690 657 694 q 678 681 672 688 q 685 663 685 675 q 656 608 685 646 q 585 518 628 569 q 493 405 543 467 q 401 281 443 343 q 330 157 358 218 q 301 46 301 96 l 374 46 q 430 74 411 46 q 463 135 449 101 q 497 197 478 169 q 553 225 515 225 q 615 201 593 225 q 638 150 638 176 q 566 40 638 79 q 372 0 494 0 l 60 0 q 40 4 49 0 q 27 14 33 7 q 21 32 21 21 z "},"A":{"ha":861,"x_min":21,"x_max":840,"o":"m 21 32 q 35 58 21 44 q 67 92 49 72 q 108 141 86 113 q 143 210 129 169 l 371 833 l 365 851 q 353 877 361 867 q 339 897 346 888 q 327 917 332 907 q 322 940 322 926 q 334 964 322 956 q 363 972 346 972 l 489 972 q 515 953 507 972 q 533 901 522 933 l 760 210 q 787 141 772 169 q 813 92 801 113 q 833 58 825 72 q 840 32 840 44 q 836 17 840 24 q 824 5 832 10 q 801 0 817 0 l 617 0 q 578 32 578 0 q 582 58 578 44 q 589 92 586 72 q 590 140 592 111 q 575 210 588 168 l 536 335 q 524 360 532 350 q 494 369 515 369 l 271 369 q 249 359 257 369 q 238 336 242 349 l 193 210 q 186 142 181 171 q 203 94 192 114 q 226 59 214 74 q 238 32 238 44 q 233 17 238 24 q 222 5 229 10 q 199 0 214 0 l 60 0 q 21 32 21 0 m 283 415 l 485 415 q 501 426 500 415 q 499 443 501 436 l 394 763 l 274 436 q 273 422 271 428 q 283 415 275 415 z "},"B":{"ha":696,"x_min":21,"x_max":675,"o":"m 60 210 l 60 763 q 53 834 60 806 q 40 882 47 863 q 27 915 33 901 q 21 940 21 928 q 60 972 21 972 l 372 972 q 479 953 429 972 q 567 901 529 935 q 626 822 604 868 q 647 719 647 775 q 618 590 647 649 q 538 492 589 531 q 637 404 599 460 q 675 276 675 349 q 653 170 675 221 q 594 82 632 119 q 507 22 557 44 q 400 0 457 0 l 60 0 q 40 4 49 0 q 27 14 33 7 q 21 32 21 21 q 27 58 21 44 q 40 90 33 71 q 53 138 47 110 q 60 210 60 167 m 268 78 l 344 78 q 406 97 382 78 q 445 147 431 117 q 465 211 460 176 q 471 276 471 246 q 463 338 471 307 q 438 394 454 369 q 394 435 421 419 q 331 451 368 451 l 317 451 q 292 451 304 451 q 269 447 279 450 q 251 436 258 443 q 244 417 244 429 l 244 210 q 244 161 244 185 q 247 119 244 138 q 253 89 249 100 q 268 78 258 78 m 244 763 l 244 554 q 251 536 244 543 q 269 526 258 529 q 292 522 279 522 q 314 521 304 521 l 331 521 q 390 540 368 521 q 424 590 413 560 q 440 654 436 619 q 443 719 443 689 q 438 781 443 750 q 417 838 432 813 q 378 878 403 863 q 317 894 354 894 l 268 894 q 253 883 258 894 q 247 853 249 872 q 244 811 244 835 q 244 763 244 788 z "},"C":{"ha":715,"x_min":21,"x_max":700,"o":"m 442 986 q 531 976 486 986 q 611 949 575 967 q 670 903 647 931 q 693 842 693 876 q 671 791 693 815 q 608 767 649 767 q 550 794 571 767 q 515 853 529 821 q 485 913 500 886 q 442 940 469 940 q 383 917 419 940 q 312 839 347 893 q 251 697 276 785 q 225 479 225 608 q 250 270 225 356 q 311 132 275 185 q 387 56 347 79 q 456 32 426 32 q 501 43 481 32 q 538 72 522 54 q 564 113 553 90 q 581 158 575 136 q 603 194 588 183 q 638 204 619 204 q 681 186 661 204 q 693 139 700 168 q 672 94 689 121 q 626 44 656 68 q 553 3 596 19 q 456 -14 511 -14 q 286 17 365 -14 q 148 110 207 49 q 55 264 89 171 q 21 479 21 357 q 55 703 21 608 q 146 862 89 799 q 280 956 203 925 q 442 986 357 986 z "},"D":{"ha":735,"x_min":21,"x_max":714,"o":"m 60 210 l 60 763 q 53 834 60 806 q 40 882 47 863 q 27 915 33 901 q 21 940 21 928 q 60 972 21 972 l 293 972 q 460 944 383 972 q 593 855 536 915 q 682 701 650 794 q 714 479 714 608 q 682 265 714 356 q 593 116 650 175 q 460 28 536 57 q 293 0 383 0 l 60 0 q 40 4 49 0 q 27 14 33 7 q 21 32 21 21 q 27 58 21 44 q 40 90 33 71 q 53 138 47 110 q 60 210 60 167 m 267 46 l 293 46 q 353 67 317 46 q 425 139 390 89 q 485 272 460 189 q 510 479 510 356 q 484 694 510 608 q 423 832 458 781 q 351 905 388 883 q 293 926 315 926 l 267 926 q 246 881 247 926 q 244 763 244 836 l 244 210 q 246 91 244 136 q 267 46 247 46 z "},"E":{"ha":692,"x_min":21,"x_max":674,"o":"m 21 940 q 26 957 21 949 q 37 967 29 963 q 60 972 44 972 l 633 972 q 658 960 658 972 q 650 938 657 949 l 597 851 q 588 842 593 846 q 578 834 583 838 q 565 831 572 831 q 550 835 558 831 q 533 855 539 840 q 513 885 526 869 q 474 914 500 901 q 399 926 449 926 l 281 926 q 253 881 261 926 q 244 763 244 836 l 244 496 q 325 513 297 499 q 368 544 353 528 q 393 574 383 561 q 418 588 403 588 q 429 585 424 588 q 437 576 433 582 q 440 560 440 571 l 440 386 q 438 372 440 378 q 418 358 432 358 q 393 372 403 358 q 368 403 383 386 q 325 434 353 419 q 244 450 297 449 l 244 210 q 253 91 244 136 q 281 46 261 46 l 428 46 q 515 66 481 46 q 574 111 550 86 q 616 156 599 136 q 650 176 633 176 q 663 172 657 176 q 669 140 674 164 q 653 92 664 117 q 631 47 642 67 q 619 26 619 26 q 587 5 610 10 q 549 0 564 0 l 60 0 q 40 4 49 0 q 27 14 33 7 q 21 32 21 21 q 27 58 21 44 q 40 90 33 71 q 53 138 47 110 q 60 210 60 167 l 60 763 q 53 834 60 806 q 40 882 47 863 q 27 915 33 901 q 21 940 21 928 z "},"F":{"ha":678,"x_min":21,"x_max":658,"o":"m 60 210 l 60 763 q 53 834 60 806 q 40 882 47 863 q 27 915 33 901 q 21 940 21 928 q 26 957 21 949 q 37 967 29 963 q 60 972 44 972 l 633 972 q 658 960 658 972 q 650 938 657 949 l 597 851 q 588 842 593 846 q 578 834 583 838 q 565 831 572 831 q 550 835 558 831 q 533 855 539 840 q 513 885 526 869 q 474 914 500 901 q 399 926 449 926 l 281 926 q 253 881 261 926 q 244 763 244 836 l 244 496 q 325 513 297 499 q 368 544 353 528 q 393 574 383 561 q 418 588 403 588 q 429 585 424 588 q 437 576 433 582 q 440 560 440 571 l 440 386 q 438 372 440 378 q 418 358 432 358 q 393 372 403 358 q 368 403 383 386 q 325 434 353 419 q 244 450 297 449 l 244 210 q 251 138 244 167 q 264 90 257 110 q 277 58 271 71 q 283 32 283 44 q 279 17 283 24 q 267 5 275 10 q 244 0 260 0 l 60 0 q 40 4 49 0 q 27 14 33 7 q 21 32 21 21 q 27 58 21 44 q 40 90 33 71 q 53 138 47 110 q 60 210 60 167 z "},"G":{"ha":744,"x_min":21,"x_max":724,"o":"m 440 986 q 647 951 571 986 q 724 842 724 917 q 701 791 724 815 q 639 767 679 767 q 598 780 614 767 q 571 812 582 793 q 550 853 560 831 q 527 895 540 876 q 494 927 514 914 q 440 940 474 940 q 367 911 406 940 q 298 824 329 882 q 246 681 267 767 q 225 479 225 594 q 248 270 225 356 q 306 132 271 185 q 379 56 340 79 q 450 32 418 32 q 501 42 481 32 q 538 67 522 51 l 538 294 q 501 352 506 328 q 538 408 497 376 l 631 485 q 654 499 640 493 q 682 506 668 506 q 710 493 699 506 q 722 446 722 481 l 722 64 q 717 16 722 32 q 679 0 711 0 q 631 6 653 0 q 593 22 610 13 q 530 -3 565 7 q 450 -14 494 -14 q 278 17 357 -14 q 142 109 199 47 q 53 263 85 171 q 21 479 21 356 q 49 688 21 594 q 132 848 78 782 q 264 950 186 914 q 440 986 342 986 z "},"H":{"ha":746,"x_min":21,"x_max":725,"o":"m 60 210 l 60 763 q 53 834 60 806 q 40 882 47 863 q 27 915 33 901 q 21 940 21 928 q 60 972 21 972 l 244 972 q 264 968 256 972 q 277 959 271 965 q 283 940 283 953 q 277 915 283 928 q 264 882 271 901 q 251 834 257 863 q 244 763 244 806 l 244 526 q 253 496 244 507 q 278 485 263 485 l 467 485 q 492 496 482 485 q 501 526 501 507 l 501 763 q 495 834 501 806 q 482 882 489 863 q 469 915 475 901 q 463 940 463 928 q 501 972 463 972 l 686 972 q 706 968 697 972 q 719 959 713 965 q 725 940 725 953 q 719 915 725 928 q 706 882 713 901 q 692 834 699 863 q 686 763 686 806 l 686 210 q 692 138 686 167 q 706 90 699 110 q 719 58 713 71 q 725 32 725 44 q 686 0 725 0 l 501 0 q 482 4 490 0 q 469 14 475 7 q 463 32 463 21 q 469 58 463 44 q 482 90 475 71 q 495 138 489 110 q 501 210 501 167 l 501 404 q 492 431 501 424 q 467 439 482 439 l 278 439 q 253 431 263 439 q 244 404 244 424 l 244 210 q 251 138 244 167 q 264 90 257 110 q 277 58 271 71 q 283 32 283 44 q 244 0 283 0 l 60 0 q 40 4 49 0 q 27 14 33 7 q 21 32 21 21 q 27 58 21 44 q 40 90 33 71 q 53 138 47 110 q 60 210 60 167 z "},"I":{"ha":304,"x_min":21,"x_max":283,"o":"m 60 210 l 60 763 q 53 834 60 806 q 40 882 47 863 q 27 915 33 901 q 21 940 21 928 q 26 957 21 949 q 37 967 29 963 q 60 972 44 972 l 244 972 q 264 968 256 972 q 277 959 271 965 q 283 940 283 953 q 277 915 283 928 q 264 882 271 901 q 251 834 257 863 q 244 763 244 806 l 244 210 q 251 138 244 167 q 264 90 257 110 q 277 58 271 71 q 283 32 283 44 q 279 17 283 24 q 267 5 275 10 q 244 0 260 0 l 60 0 q 40 4 49 0 q 27 14 33 7 q 21 32 21 21 q 27 58 21 44 q 40 90 33 71 q 53 138 47 110 q 60 210 60 167 z "},"J":{"ha":632,"x_min":21,"x_max":611,"o":"m 106 236 q 145 217 131 233 q 169 178 160 201 q 187 130 179 156 q 204 83 194 104 q 229 47 214 61 q 269 32 244 32 q 317 51 297 32 q 349 102 336 71 q 370 174 363 133 q 382 255 378 214 q 387 335 386 296 q 388 404 388 375 l 388 763 q 381 834 388 806 q 368 882 375 863 q 355 915 361 901 q 349 940 349 928 q 354 957 349 949 q 365 967 357 963 q 388 972 372 972 l 572 972 q 592 968 583 972 q 605 959 599 965 q 611 940 611 953 q 605 915 611 928 q 592 882 599 901 q 578 834 585 863 q 572 763 572 806 l 572 404 q 572 319 572 365 q 563 227 571 274 q 538 137 556 181 q 488 60 521 93 q 401 6 454 26 q 269 -14 349 -14 q 159 3 206 -14 q 82 45 113 19 q 36 101 51 71 q 21 161 21 132 q 41 211 21 186 q 97 236 61 236 l 106 236 z "},"K":{"ha":706,"x_min":21,"x_max":685,"o":"m 60 972 l 244 972 q 264 968 256 972 q 277 959 271 965 q 283 940 283 953 q 277 915 283 928 q 264 882 271 901 q 251 834 257 863 q 244 763 244 806 l 244 549 q 342 607 299 569 q 417 690 386 644 q 469 788 449 736 q 499 892 490 840 q 497 908 500 900 q 489 924 493 917 q 481 937 485 931 q 478 949 478 943 q 525 972 478 972 l 622 972 q 646 969 636 972 q 663 963 656 967 q 669 949 669 958 q 660 926 669 935 q 644 900 651 918 q 602 791 631 846 q 533 687 574 736 q 442 596 493 638 q 329 526 390 554 q 422 486 381 517 q 494 415 463 456 q 549 327 526 374 q 588 238 572 281 q 615 163 604 196 q 631 117 625 131 q 647 91 638 101 q 664 72 656 81 q 678 55 672 64 q 685 32 685 46 q 672 6 685 13 q 643 0 660 0 l 468 0 q 440 17 450 0 q 424 72 431 35 q 401 183 415 117 q 364 314 386 250 q 312 423 342 378 q 244 468 282 468 l 244 210 q 251 138 244 167 q 264 90 257 110 q 277 58 271 71 q 283 32 283 44 q 244 0 283 0 l 60 0 q 40 4 49 0 q 27 14 33 7 q 21 32 21 21 q 27 58 21 44 q 40 90 33 71 q 53 138 47 110 q 60 210 60 167 l 60 763 q 53 834 60 806 q 40 882 47 863 q 27 915 33 901 q 21 940 21 928 q 60 972 21 972 z "},"L":{"ha":692,"x_min":21,"x_max":674,"o":"m 21 940 q 26 957 21 949 q 37 967 29 963 q 60 972 44 972 l 244 972 q 264 968 256 972 q 277 959 271 965 q 283 940 283 953 q 277 915 283 928 q 264 882 271 901 q 251 834 257 863 q 244 763 244 806 l 244 210 q 253 91 244 136 q 281 46 261 46 l 428 46 q 515 66 481 46 q 574 111 550 86 q 616 156 599 136 q 650 176 633 176 q 663 172 657 176 q 669 140 674 164 q 653 92 664 117 q 631 47 642 67 q 619 26 619 26 q 587 5 610 10 q 549 0 564 0 l 60 0 q 40 4 49 0 q 27 14 33 7 q 21 32 21 21 q 27 58 21 44 q 40 90 33 71 q 53 138 47 110 q 60 210 60 167 l 60 763 q 53 834 60 806 q 40 882 47 863 q 27 915 33 901 q 21 940 21 928 z "},"M":{"ha":974,"x_min":19,"x_max":953,"o":"m 19 22 q 33 47 19 38 q 64 72 47 57 q 95 116 81 88 q 111 196 110 144 l 111 776 q 95 857 110 829 q 64 900 81 885 q 33 925 47 915 q 19 950 19 935 q 24 961 19 956 q 47 972 29 972 l 157 972 q 263 937 215 972 q 347 844 310 901 q 413 711 385 786 q 463 556 442 636 q 500 399 485 476 q 526 257 515 321 q 543 149 536 193 q 554 94 550 106 l 690 940 q 696 957 690 949 q 706 967 699 963 q 729 972 714 972 l 914 972 q 953 940 953 972 q 947 915 953 928 q 933 882 940 901 q 920 834 926 863 q 914 763 914 806 l 914 210 q 920 138 914 167 q 933 90 926 110 q 947 58 940 71 q 953 32 953 44 q 949 17 953 24 q 937 5 944 10 q 914 0 929 0 l 729 0 q 690 32 690 0 q 697 58 690 44 q 710 90 703 71 q 723 138 717 110 q 729 210 729 167 l 729 763 q 727 806 729 786 q 722 840 725 825 l 590 29 q 576 7 588 14 q 550 0 565 0 l 394 0 q 367 17 376 0 q 350 72 357 35 q 335 165 344 101 q 315 305 326 228 q 287 464 303 382 q 251 613 271 546 q 208 724 231 681 q 157 768 185 768 l 157 196 q 174 116 160 144 q 206 72 189 88 q 235 47 222 57 q 249 22 249 38 q 246 11 249 17 q 238 3 243 7 q 221 0 232 0 l 47 0 q 19 22 19 0 z "},"N":{"ha":872,"x_min":21,"x_max":851,"o":"m 21 22 q 35 47 21 38 q 65 72 49 57 q 97 116 82 88 q 113 196 111 144 l 113 776 q 97 857 111 829 q 65 900 82 885 q 35 925 49 915 q 21 950 21 935 q 25 961 21 956 q 49 972 31 972 l 158 972 q 275 936 218 972 q 385 841 332 900 q 486 706 438 782 q 576 549 535 629 q 653 391 618 469 q 714 250 689 313 l 714 776 q 698 857 713 829 q 667 900 683 885 q 636 925 650 915 q 622 950 622 935 q 626 961 622 956 q 650 972 632 972 l 824 972 q 851 950 851 972 q 838 925 851 935 q 808 900 825 915 q 777 857 792 885 q 760 776 763 829 l 760 196 q 777 116 763 144 q 808 72 792 88 q 838 47 825 57 q 851 22 851 38 q 849 11 851 17 q 840 3 846 7 q 824 0 835 0 l 614 0 q 586 17 596 0 q 569 72 576 35 q 539 165 564 101 q 477 305 514 228 q 397 464 440 382 q 309 613 353 546 q 226 724 265 681 q 158 768 186 768 l 158 196 q 176 116 161 144 q 207 72 190 88 q 237 47 224 57 q 250 22 250 38 q 247 11 250 17 q 239 3 244 7 q 222 0 233 0 l 49 0 q 21 22 21 0 z "},"O":{"ha":811,"x_min":21,"x_max":790,"o":"m 406 986 q 567 949 496 986 q 688 844 639 911 q 764 687 738 778 q 790 489 790 596 q 764 290 790 382 q 688 130 738 197 q 567 24 639 63 q 406 -14 496 -14 q 244 24 315 -14 q 123 130 172 63 q 47 290 74 197 q 21 489 21 382 q 47 687 21 596 q 123 844 74 778 q 244 949 172 911 q 406 986 315 986 m 225 489 q 241 297 225 382 q 283 153 257 213 q 341 63 308 94 q 406 32 374 32 q 470 63 438 32 q 528 153 503 94 q 570 297 554 213 q 586 489 586 382 q 570 680 586 596 q 528 822 554 764 q 470 910 503 879 q 406 940 438 940 q 341 910 374 940 q 283 822 308 879 q 241 680 257 764 q 225 489 225 596 z "},"P":{"ha":696,"x_min":21,"x_max":675,"o":"m 21 32 q 27 58 21 44 q 40 90 33 71 q 53 138 47 110 q 60 210 60 167 l 60 763 q 53 834 60 806 q 40 882 47 863 q 27 915 33 901 q 21 940 21 928 q 60 972 21 972 l 244 972 q 260 969 253 972 q 273 963 267 967 q 282 951 279 960 q 400 986 336 986 q 507 958 457 986 q 594 883 557 931 q 653 773 632 836 q 675 638 675 710 q 653 503 675 567 q 594 393 632 440 q 507 318 557 346 q 400 290 457 290 q 244 351 314 290 l 244 210 q 251 138 244 167 q 264 90 257 110 q 277 58 271 71 q 283 32 283 44 q 244 0 283 0 l 60 0 q 40 4 49 0 q 27 14 33 7 q 21 32 21 21 m 244 763 l 244 422 q 291 383 265 397 q 344 368 317 368 q 406 393 382 368 q 445 457 431 418 q 465 544 460 496 q 471 638 471 592 q 465 732 471 683 q 445 819 460 781 q 406 883 431 858 q 344 908 382 908 q 290 896 310 908 q 260 863 271 883 q 247 816 250 842 q 244 763 244 790 z "},"Q":{"ha":811,"x_min":21,"x_max":793,"o":"m 406 986 q 567 949 496 986 q 688 844 639 911 q 764 687 738 778 q 790 489 790 596 q 769 310 790 393 q 710 162 749 226 q 614 53 671 97 q 485 -6 557 10 q 528 -58 501 -29 q 590 -110 556 -86 q 649 -139 618 -129 q 706 -158 679 -149 q 755 -181 733 -167 q 786 -225 776 -196 q 790 -269 793 -247 q 774 -307 786 -290 q 742 -335 761 -324 q 701 -347 724 -346 l 689 -347 q 575 -301 625 -347 q 479 -147 525 -254 l 428 -14 l 406 -14 q 244 24 315 -14 q 123 130 172 63 q 47 290 74 197 q 21 489 21 382 q 47 687 21 596 q 123 844 74 778 q 244 949 172 911 q 406 986 315 986 m 225 489 q 241 297 225 382 q 283 153 257 213 q 341 63 308 94 q 406 32 374 32 q 470 63 438 32 q 528 153 503 94 q 570 297 554 213 q 586 489 586 382 q 570 680 586 596 q 528 822 554 764 q 470 910 503 879 q 406 940 438 940 q 341 910 374 940 q 283 822 308 879 q 241 680 257 764 q 225 489 225 596 z "},"R":{"ha":722,"x_min":21,"x_max":701,"o":"m 21 32 q 27 58 21 44 q 40 90 33 71 q 53 138 47 110 q 60 210 60 167 l 60 763 q 53 834 60 806 q 40 882 47 863 q 27 915 33 901 q 21 940 21 928 q 60 972 21 972 l 244 972 q 257 971 251 972 q 278 958 269 968 q 400 986 336 986 q 507 965 457 986 q 594 905 557 944 q 653 808 632 865 q 675 679 675 751 q 621 481 675 563 q 482 372 567 400 q 552 303 524 342 q 599 229 581 265 q 630 163 618 193 q 647 117 642 132 q 663 91 654 101 q 681 72 672 81 q 695 55 689 64 q 701 32 701 46 q 689 6 701 13 q 660 0 676 0 l 485 0 q 457 17 467 0 q 440 72 447 35 q 426 147 435 106 q 404 228 417 188 q 375 306 392 269 q 335 368 358 343 q 244 413 288 381 l 244 210 q 251 138 244 167 q 264 90 257 110 q 277 58 271 71 q 283 32 283 44 q 244 0 283 0 l 60 0 q 40 4 49 0 q 27 14 33 7 q 21 32 21 21 m 244 483 q 291 450 265 463 q 344 438 317 438 q 406 458 382 438 q 445 513 431 479 q 465 590 460 546 q 471 679 471 633 q 465 767 471 725 q 445 840 460 808 q 406 890 431 871 q 344 908 382 908 q 288 897 308 908 q 258 866 268 886 q 247 819 249 846 q 244 763 244 793 l 244 483 z "},"S":{"ha":640,"x_min":21,"x_max":619,"o":"m 106 211 q 163 183 143 211 q 199 122 183 156 q 235 60 215 88 q 292 32 254 32 q 364 47 338 32 q 404 85 390 63 q 422 131 418 107 q 426 174 426 156 q 397 283 426 236 q 322 369 367 329 q 225 447 278 410 q 128 528 172 485 q 53 624 83 571 q 24 746 24 676 q 50 844 24 800 q 120 919 76 888 q 223 969 164 951 q 346 986 282 986 q 548 947 478 986 q 618 836 618 907 q 596 785 618 810 q 533 761 574 761 q 492 774 508 761 q 465 808 476 788 q 445 851 454 828 q 424 894 436 874 q 394 927 411 914 q 347 940 376 940 q 275 925 301 940 q 235 888 249 910 q 217 840 221 865 q 213 797 213 815 q 242 688 213 736 q 318 599 272 640 q 416 519 364 558 q 514 437 468 481 q 590 340 560 393 q 619 218 619 288 q 592 122 619 164 q 521 49 565 79 q 417 2 476 18 q 293 -14 358 -14 q 183 -3 233 -14 q 97 26 132 7 q 41 74 61 46 q 21 136 21 101 q 43 187 21 163 q 106 211 65 211 z "},"T":{"ha":911,"x_min":21,"x_max":890,"o":"m 43 972 l 868 972 q 885 969 881 972 q 890 960 890 965 q 888 949 890 956 q 885 938 886 943 l 832 761 q 822 751 828 756 q 813 744 818 747 q 800 740 807 740 q 785 744 793 740 q 767 779 774 750 q 748 841 761 808 q 709 900 735 874 q 633 926 683 926 l 585 926 q 551 881 554 926 q 549 763 549 836 l 549 210 q 555 138 549 167 q 568 90 561 110 q 581 58 575 71 q 588 32 588 44 q 549 0 588 0 l 364 0 q 344 4 353 0 q 331 14 338 7 q 325 32 325 21 q 331 58 325 44 q 344 90 338 71 q 358 138 351 110 q 364 210 364 167 l 364 763 q 364 829 364 799 q 361 881 364 860 q 351 915 358 903 q 328 926 343 926 l 278 926 q 202 900 228 926 q 163 842 176 874 q 144 781 150 810 q 126 744 138 751 q 110 739 119 739 q 79 761 93 739 l 26 938 q 23 949 25 943 q 21 960 21 956 q 26 969 21 965 q 43 972 31 972 z "},"U":{"ha":776,"x_min":21,"x_max":756,"o":"m 244 972 q 264 968 256 972 q 277 959 271 965 q 283 940 283 953 q 277 915 283 928 q 264 882 271 901 q 251 834 257 863 q 244 763 244 806 l 244 251 q 260 164 244 201 q 303 101 276 126 q 363 63 329 75 q 432 50 397 50 q 500 63 467 50 q 560 101 533 75 q 602 164 586 126 q 618 251 618 201 l 618 776 q 602 857 617 829 q 571 900 588 885 q 540 925 554 915 q 526 950 526 935 q 531 961 526 956 q 554 972 536 972 l 728 972 q 742 969 736 972 q 756 950 756 964 q 742 925 756 935 q 713 900 729 915 q 681 857 696 885 q 664 776 667 829 l 664 251 q 638 135 664 185 q 569 53 613 86 q 473 3 526 19 q 363 -14 419 -14 q 251 3 306 -14 q 154 53 197 19 q 85 135 111 86 q 60 251 60 185 l 60 763 q 53 834 60 806 q 40 882 47 863 q 27 915 33 901 q 21 940 21 928 q 26 957 21 949 q 37 967 29 963 q 60 972 44 972 l 244 972 z "},"V":{"ha":900,"x_min":21,"x_max":879,"o":"m 261 972 q 281 968 272 972 q 294 959 288 965 q 300 940 300 953 q 297 916 300 928 q 294 885 294 904 q 297 838 293 867 q 315 763 301 808 l 522 69 l 710 763 q 715 831 721 803 q 697 879 708 858 q 674 914 686 900 q 663 940 663 928 q 668 957 663 949 q 678 967 671 963 q 701 972 686 972 l 840 972 q 860 968 851 972 q 873 959 867 965 q 879 940 879 953 q 865 915 879 928 q 830 881 850 901 q 789 833 810 861 q 757 763 768 804 l 571 72 q 552 21 563 42 q 521 0 542 0 l 383 0 q 329 69 351 0 l 122 763 q 92 833 110 804 q 59 881 75 861 q 32 914 43 900 q 21 940 21 928 q 26 957 21 949 q 37 967 29 963 q 60 972 44 972 l 261 972 z "},"W":{"ha":1392,"x_min":21,"x_max":1371,"o":"m 21 940 q 26 957 21 949 q 37 967 29 963 q 60 972 44 972 l 261 972 q 300 940 300 972 q 297 916 300 928 q 294 885 294 904 q 297 838 293 867 q 315 763 301 808 l 522 69 l 654 763 q 658 813 658 790 q 631 860 646 840 q 603 894 617 879 q 581 919 590 908 q 572 940 572 931 q 578 957 572 949 q 588 967 581 963 q 611 972 596 972 l 808 972 q 847 940 847 972 q 846 917 847 928 q 844 887 844 906 q 849 839 844 868 q 863 763 853 810 l 1014 69 l 1201 763 q 1206 831 1213 803 q 1189 879 1200 858 q 1166 914 1178 900 q 1154 940 1154 928 q 1160 957 1154 949 q 1170 967 1163 963 q 1193 972 1178 972 l 1332 972 q 1371 940 1371 972 q 1356 915 1371 928 q 1322 881 1342 901 q 1281 833 1301 861 q 1249 763 1260 804 l 1063 72 q 1044 21 1054 42 q 1013 0 1033 0 l 879 0 q 825 69 840 0 l 689 694 l 569 72 q 552 21 563 42 q 521 0 542 0 l 383 0 q 329 69 351 0 l 122 763 q 92 833 110 804 q 59 881 75 861 q 32 914 43 900 q 21 940 21 928 z "},"X":{"ha":863,"x_min":21,"x_max":842,"o":"m 185 210 l 357 442 q 240 610 300 526 q 132 762 181 693 q 52 878 83 831 q 21 940 21 926 q 60 972 21 972 l 261 972 q 281 968 272 972 q 294 959 288 965 q 300 940 300 953 q 314 867 300 908 q 351 777 328 825 q 407 676 375 729 q 475 567 439 622 l 621 763 q 654 830 650 801 q 652 878 658 858 q 635 913 646 899 q 625 940 625 928 q 664 972 625 972 l 803 972 q 822 968 814 972 q 835 959 829 965 q 842 940 842 953 q 829 917 842 928 q 794 887 817 906 q 742 839 772 868 q 678 763 713 810 l 501 526 q 620 359 560 442 q 730 209 681 276 q 810 94 779 142 q 842 32 842 47 q 803 0 842 0 l 601 0 q 582 4 590 0 q 569 14 575 7 q 563 32 563 21 q 549 101 563 61 q 510 190 535 142 q 454 291 486 238 q 385 400 422 344 l 242 210 q 208 142 213 171 q 210 94 204 114 q 227 59 217 74 q 238 32 238 44 q 199 0 238 0 l 60 0 q 40 4 49 0 q 27 14 33 7 q 21 32 21 21 q 33 56 21 44 q 68 85 46 67 q 120 133 90 104 q 185 210 150 163 z "},"Y":{"ha":817,"x_min":21,"x_max":796,"o":"m 60 972 l 261 972 q 300 940 300 972 q 294 917 300 928 q 284 887 288 906 q 286 839 281 868 q 315 763 292 810 l 481 442 l 626 763 q 640 831 646 803 q 622 880 635 860 q 594 914 608 900 q 579 940 579 928 q 585 957 579 949 q 595 967 588 963 q 618 972 603 972 l 757 972 q 796 940 796 972 q 784 915 796 928 q 754 882 772 901 q 715 834 736 863 q 674 763 693 806 l 529 444 q 513 404 522 428 q 503 372 503 381 l 503 210 q 509 138 503 167 q 522 90 515 110 q 535 58 529 71 q 542 32 542 44 q 538 17 542 24 q 526 5 533 10 q 503 0 518 0 l 318 0 q 279 32 279 0 q 285 58 279 44 q 299 90 292 71 q 312 138 306 110 q 318 210 318 167 l 318 372 q 308 402 318 381 q 288 442 297 424 l 122 763 q 83 833 101 804 q 50 881 64 861 q 28 914 36 900 q 21 940 21 928 q 26 957 21 949 q 37 967 29 963 q 60 972 44 972 z "},"Z":{"ha":789,"x_min":21,"x_max":768,"o":"m 21 32 q 56 106 21 49 q 142 244 90 163 q 255 421 194 325 q 367 610 315 517 q 454 788 419 704 q 489 926 489 871 l 318 926 q 262 899 281 926 q 228 837 243 871 q 195 775 214 803 q 139 747 176 747 q 76 772 99 747 q 54 822 54 796 q 126 933 54 893 q 319 972 197 972 l 729 972 q 749 968 740 972 q 762 959 756 965 q 768 940 768 953 q 748 891 768 928 q 695 801 728 854 q 621 681 663 747 q 535 544 579 615 q 449 400 492 472 q 374 261 407 328 q 322 139 342 194 q 301 46 301 83 l 471 46 q 527 74 508 46 q 560 135 546 101 q 594 197 575 169 q 650 225 613 225 q 713 201 690 225 q 735 150 735 176 q 663 40 735 79 q 469 0 592 0 l 60 0 q 40 4 49 0 q 27 14 33 7 q 21 32 21 21 z "},".":{"ha":210,"x_min":21,"x_max":189,"o":"m 21 71 q 45 130 21 106 q 106 154 69 154 q 165 130 140 154 q 189 71 189 106 q 165 10 189 35 q 106 -14 140 -14 q 45 10 69 -14 q 21 71 21 35 z "},",":{"ha":210,"x_min":21,"x_max":189,"o":"m 21 68 q 45 127 21 103 q 106 151 69 151 q 164 126 139 151 q 189 61 189 101 q 178 3 189 32 q 149 -48 168 -25 q 104 -85 131 -71 q 47 -99 78 -99 q 26 -87 26 -99 q 28 -82 26 -85 q 40 -76 31 -79 q 75 -51 64 -71 q 86 -14 86 -32 q 40 15 58 -7 q 21 68 21 38 z "},"":{"ha":975,"x_min":21,"x_max":1560,"o":"m 21 22 q 35 47 21 38 q 65 72 49 57 q 97 116 82 88 q 113 196 111 144 l 113 776 q 97 857 111 829 q 65 900 82 885 q 35 925 49 915 q 21 950 21 935 q 49 972 21 972 l 158 972 q 264 937 217 972 q 349 844 311 901 q 415 711 386 786 q 465 556 443 636 q 501 399 486 476 q 527 257 517 321 q 544 149 538 193 q 556 94 551 106 l 692 940 q 697 957 692 949 q 708 967 700 963 q 732 972 717 972 q 867 983 800 972 q 1005 1007 933 994 q 1155 1031 1076 1019 q 1324 1042 1233 1042 q 1401 1037 1358 1042 q 1479 1017 1443 1032 q 1538 973 1515 1001 q 1553 896 1560 944 q 1523 838 1547 861 q 1461 814 1499 814 q 1455 815 1458 814 q 1449 815 1451 815 q 1392 833 1419 815 q 1339 876 1365 851 q 1285 924 1313 900 q 1228 957 1258 947 q 1135 972 1182 972 q 1040 960 1088 972 q 951 926 993 947 q 915 763 915 908 l 915 210 q 922 138 915 167 q 935 90 928 110 q 948 58 942 71 q 954 32 954 44 q 915 0 954 0 l 731 0 q 692 32 692 0 q 698 58 692 44 q 711 90 704 71 q 724 138 718 110 q 731 210 731 167 l 731 763 q 728 805 731 786 q 724 839 726 824 l 592 29 q 578 7 589 14 q 551 0 567 0 l 396 0 q 368 17 378 0 q 351 72 358 35 q 337 165 346 101 q 316 305 328 228 q 288 464 304 382 q 252 613 272 546 q 209 724 232 681 q 158 768 186 768 l 158 196 q 176 116 161 144 q 207 72 190 88 q 237 47 224 57 q 250 22 250 38 q 222 0 250 0 l 49 0 q 21 22 21 0 z "},"":{"ha":713,"x_min":-581,"x_max":692,"o":"m -460 -81 q -370 -96 -412 -81 q -282 -134 -328 -111 q -183 -184 -236 -157 q -64 -234 -131 -211 q 88 -272 3 -257 q 282 -287 172 -287 q 381 -272 342 -287 q 442 -233 419 -257 q 472 -178 464 -208 q 481 -119 481 -149 q 460 -54 481 -81 q 401 -11 439 -28 q 312 15 364 6 q 197 32 260 25 q 102 74 126 39 q 97 151 78 108 q 120 199 111 182 q 132 222 129 215 q 52 303 83 251 q 21 438 21 354 q 47 563 21 513 q 115 644 74 613 q 206 690 156 675 q 303 707 256 704 q 315 745 306 715 q 345 807 324 775 q 404 864 367 839 q 500 889 442 889 q 561 881 528 889 q 624 857 594 874 q 672 815 653 840 q 692 756 692 790 q 669 705 692 729 q 607 681 647 681 q 567 692 582 681 q 542 719 551 703 q 528 755 533 736 q 515 790 522 774 q 498 818 508 807 q 468 829 488 829 q 414 813 436 829 q 378 776 392 797 q 358 736 365 756 q 350 708 351 717 q 451 694 399 707 q 549 650 504 681 q 622 568 593 619 q 651 438 651 517 q 621 305 651 357 q 543 224 590 253 q 440 183 496 194 q 336 172 385 172 q 258 178 299 172 q 176 200 217 185 q 165 172 171 188 q 156 143 160 157 q 171 129 153 132 q 225 126 189 126 q 276 127 249 126 q 338 128 304 128 q 517 107 449 128 q 624 55 585 86 q 676 -14 663 24 q 689 -85 689 -51 q 665 -178 689 -139 q 603 -244 640 -217 q 519 -287 565 -271 q 427 -314 472 -304 q 343 -327 382 -324 q 282 -333 304 -331 q 224 -338 260 -336 q 145 -342 189 -340 q 51 -346 101 -344 q -54 -347 0 -347 q -189 -344 -121 -347 q -319 -335 -257 -342 q -431 -316 -381 -328 q -514 -285 -482 -304 q -566 -228 -551 -262 q -573 -160 -581 -193 q -537 -104 -565 -128 q -460 -81 -508 -81 m 225 438 q 236 324 225 367 q 264 257 247 281 q 300 226 281 233 q 336 218 319 218 q 372 226 353 218 q 408 257 392 233 q 436 324 425 281 q 447 438 447 367 q 436 552 447 508 q 408 621 425 596 q 372 654 392 646 q 336 663 353 663 q 300 654 319 663 q 264 621 281 646 q 236 552 247 596 q 225 438 225 508 z "},"":{"ha":700,"x_min":21,"x_max":914,"o":"m 350 708 q 394 717 363 708 q 468 737 426 726 q 558 756 510 747 q 650 764 606 764 q 731 759 685 764 q 819 739 778 754 q 888 695 861 724 q 907 618 914 667 q 872 556 900 575 q 803 538 843 538 q 749 553 774 538 q 698 590 724 569 q 644 633 672 611 q 582 665 617 654 q 543 675 560 672 q 513 678 526 678 q 638 552 597 638 q 679 347 679 467 q 658 200 679 267 q 594 85 636 133 q 492 12 553 38 q 350 -14 431 -14 q 208 12 269 -14 q 106 85 147 38 q 42 200 64 133 q 21 347 21 267 q 42 495 21 429 q 106 609 64 561 q 208 683 147 657 q 350 708 269 708 m 350 32 q 394 51 372 32 q 435 108 417 69 q 464 207 453 147 q 475 347 475 267 q 464 488 475 429 q 435 586 453 547 q 394 644 417 625 q 350 663 372 663 q 306 644 328 663 q 265 586 283 625 q 236 488 247 547 q 225 347 225 429 q 236 207 225 267 q 265 108 247 147 q 306 51 283 69 q 350 32 328 32 z "},"":{"ha":608,"x_min":21,"x_max":588,"o":"m 60 210 l 60 744 q 80 906 60 844 q 133 1000 100 967 q 206 1044 165 1033 q 289 1056 247 1056 q 349 1050 306 1056 q 438 1027 393 1044 q 518 976 483 1010 q 553 888 553 943 q 527 827 553 854 q 454 800 501 800 q 399 815 418 800 q 368 854 379 831 q 352 905 357 878 q 341 956 347 932 q 324 994 335 979 q 289 1010 313 1010 q 255 970 265 1010 q 244 844 244 931 l 244 210 q 251 138 244 167 q 264 90 257 110 q 277 58 271 71 q 283 32 283 44 q 279 17 283 24 q 267 5 275 10 q 244 0 260 0 l 60 0 q 40 4 49 0 q 27 14 33 7 q 21 32 21 21 q 27 58 21 44 q 40 90 33 71 q 53 138 47 110 q 60 210 60 167 m 364 478 q 328 535 332 511 q 364 592 324 560 l 457 668 q 483 686 468 678 q 513 694 497 694 q 538 681 528 694 q 549 629 549 667 l 549 210 q 555 138 549 167 q 568 90 561 110 q 581 58 575 71 q 588 32 588 44 q 581 14 588 21 q 568 4 575 7 q 549 0 560 0 l 364 0 q 344 4 353 0 q 331 14 338 7 q 325 32 325 21 q 331 58 325 44 q 344 90 338 71 q 358 138 351 110 q 364 210 364 167 l 364 478 z "},"":{"ha":4158,"x_min":21,"x_max":4143,"o":"m 1144 -81 q 1234 -96 1192 -81 q 1322 -134 1276 -111 q 1421 -184 1368 -157 q 1540 -234 1474 -211 q 1692 -272 1607 -257 q 1886 -287 1776 -287 q 1985 -272 1946 -287 q 2046 -233 2024 -257 q 2076 -178 2068 -208 q 2085 -119 2085 -149 q 2064 -54 2085 -81 q 2006 -11 2043 -28 q 1916 15 1968 6 q 1801 32 1864 25 q 1706 74 1731 39 q 1701 151 1682 108 q 1724 199 1715 182 q 1736 222 1733 215 q 1656 303 1688 251 q 1625 438 1625 354 q 1651 563 1625 513 q 1719 644 1678 613 q 1810 690 1760 675 q 1907 707 1860 704 q 1919 745 1910 715 q 1949 807 1928 775 q 2008 864 1971 839 q 2104 889 2046 889 q 2165 881 2132 889 q 2228 857 2199 874 q 2276 815 2257 840 q 2296 756 2296 790 q 2274 705 2296 729 q 2211 681 2251 681 q 2171 692 2186 681 q 2147 719 2156 703 q 2132 755 2138 736 q 2119 790 2126 774 q 2102 818 2113 807 q 2072 829 2092 829 q 2018 813 2040 829 q 1983 776 1996 797 q 1963 736 1969 756 q 1954 708 1956 717 q 2056 694 2003 707 q 2153 650 2108 681 q 2226 568 2197 619 q 2256 438 2256 517 q 2225 305 2256 357 q 2147 224 2194 253 q 2044 183 2100 194 q 1940 172 1989 172 q 1862 178 1903 172 q 1781 200 1821 185 q 1769 172 1775 188 q 1760 143 1764 157 q 1775 129 1757 132 q 1829 126 1793 126 q 1881 127 1853 126 q 1942 128 1908 128 q 2121 107 2053 128 q 2228 55 2189 86 q 2280 -14 2267 24 q 2293 -85 2293 -51 q 2269 -178 2293 -139 q 2207 -244 2244 -217 q 2123 -287 2169 -271 q 2031 -314 2076 -304 q 1947 -327 1986 -324 q 1886 -333 1908 -331 q 1828 -338 1864 -336 q 1749 -342 1793 -340 q 1655 -346 1706 -344 q 1550 -347 1604 -347 q 1415 -344 1483 -347 q 1285 -335 1347 -342 q 1173 -316 1224 -328 q 1090 -285 1122 -304 q 1038 -228 1053 -262 q 1031 -160 1024 -193 q 1068 -104 1039 -128 q 1144 -81 1097 -81 m 21 22 q 35 47 21 38 q 65 72 49 57 q 97 116 82 88 q 113 196 111 144 l 113 776 q 97 857 111 829 q 65 900 82 885 q 35 925 49 915 q 21 950 21 935 q 49 972 21 972 l 158 972 q 264 937 217 972 q 349 844 311 901 q 415 711 386 786 q 465 556 443 636 q 501 399 486 476 q 527 257 517 321 q 544 149 538 193 q 556 94 551 106 l 692 940 q 697 957 692 949 q 708 967 700 963 q 732 972 717 972 q 867 983 800 972 q 1005 1007 933 994 q 1155 1031 1076 1019 q 1324 1042 1233 1042 q 1401 1037 1358 1042 q 1479 1017 1443 1032 q 1538 973 1515 1001 q 1553 896 1560 944 q 1523 838 1547 861 q 1461 814 1499 814 q 1455 815 1458 814 q 1449 815 1451 815 q 1392 833 1419 815 q 1339 876 1365 851 q 1285 924 1313 900 q 1228 957 1258 947 q 1135 972 1182 972 q 1040 960 1088 972 q 951 926 993 947 q 915 763 915 908 l 915 210 q 922 138 915 167 q 935 90 928 110 q 948 58 942 71 q 954 32 954 44 q 915 0 954 0 l 731 0 q 692 32 692 0 q 698 58 692 44 q 711 90 704 71 q 724 138 718 110 q 731 210 731 167 l 731 763 q 728 805 731 786 q 724 839 726 824 l 592 29 q 578 7 589 14 q 551 0 567 0 l 396 0 q 368 17 378 0 q 351 72 358 35 q 337 165 346 101 q 316 305 328 228 q 288 464 304 382 q 252 613 272 546 q 209 724 232 681 q 158 768 186 768 l 158 196 q 176 116 161 144 q 207 72 190 88 q 237 47 224 57 q 250 22 250 38 q 222 0 250 0 l 49 0 q 21 22 21 0 m 3579 708 q 3624 717 3592 708 q 3697 737 3656 726 q 3787 756 3739 747 q 3879 764 3835 764 q 3960 759 3914 764 q 4049 739 4007 754 q 4117 695 4090 724 q 4136 618 4143 667 q 4101 556 4129 575 q 4032 538 4072 538 q 3978 553 4003 538 q 3927 590 3953 569 q 3874 633 3901 611 q 3811 665 3846 654 q 3772 675 3789 672 q 3742 678 3756 678 q 3867 552 3826 638 q 3908 347 3908 467 q 3887 200 3908 267 q 3824 85 3865 133 q 3721 12 3782 38 q 3579 -14 3660 -14 q 3438 12 3499 -14 q 3335 85 3376 38 q 3272 200 3293 133 q 3250 347 3250 267 q 3272 495 3250 429 q 3335 609 3293 561 q 3438 683 3376 657 q 3579 708 3499 708 m 996 185 q 1023 295 996 251 q 1092 368 1050 339 q 1187 417 1135 397 q 1288 460 1239 438 q 1329 482 1308 469 q 1367 506 1350 494 q 1342 617 1361 572 q 1286 663 1322 663 q 1242 635 1264 663 q 1197 574 1221 607 q 1144 514 1174 542 q 1078 486 1115 486 q 1020 510 1038 486 q 1003 561 1003 535 q 1024 624 1003 596 q 1082 670 1044 651 q 1172 699 1119 689 q 1286 708 1224 708 q 1456 666 1404 708 q 1522 546 1508 624 q 1528 494 1525 529 q 1533 417 1531 460 q 1539 328 1536 375 q 1544 241 1542 282 q 1549 167 1546 200 q 1554 121 1551 135 q 1565 95 1557 106 q 1579 75 1572 85 q 1592 56 1586 65 q 1597 32 1597 46 q 1585 8 1597 17 q 1557 0 1574 0 l 1382 0 q 1358 9 1369 0 q 1342 38 1347 18 q 1270 -1 1311 14 q 1190 -15 1229 -15 q 1110 2 1146 -15 q 1049 48 1074 19 q 1010 112 1024 76 q 996 185 996 147 m 2681 210 l 2681 744 q 2701 906 2681 844 q 2753 1000 2721 967 q 2827 1044 2786 1033 q 2910 1056 2868 1056 q 2970 1050 2926 1056 q 3059 1027 3014 1044 q 3139 976 3104 1010 q 3174 888 3174 943 q 3148 827 3174 854 q 3075 800 3122 800 q 3019 815 3039 800 q 2989 854 3000 831 q 2973 905 2978 878 q 2962 956 2968 932 q 2944 994 2956 979 q 2910 1010 2932 1010 q 2876 970 2886 1010 q 2865 844 2865 931 l 2865 210 q 2872 138 2865 167 q 2885 90 2878 110 q 2898 58 2892 71 q 2904 32 2904 44 q 2900 17 2904 24 q 2888 5 2896 10 q 2865 0 2881 0 l 2681 0 q 2661 4 2669 0 q 2648 14 2654 7 q 2642 32 2642 21 q 2648 58 2642 44 q 2661 90 2654 71 q 2674 138 2668 110 q 2681 210 2681 167 m 3454 347 q 3465 207 3454 267 q 3494 108 3476 147 q 3535 51 3513 69 q 3579 32 3557 32 q 3624 51 3601 32 q 3664 108 3646 69 q 3693 207 3682 147 q 3704 347 3704 267 q 3693 488 3704 429 q 3664 586 3682 547 q 3624 644 3646 625 q 3579 663 3601 663 q 3535 644 3557 663 q 3494 586 3513 625 q 3465 488 3476 547 q 3454 347 3454 429 m 2985 592 l 3078 668 q 3103 686 3089 678 q 3133 694 3118 694 q 3159 681 3149 694 q 3169 629 3169 667 l 3169 210 q 3176 138 3169 167 q 3189 90 3182 110 q 3202 58 3196 71 q 3208 32 3208 44 q 3204 17 3208 24 q 3192 5 3200 10 q 3169 0 3185 0 l 2985 0 q 2965 4 2974 0 q 2952 14 2958 7 q 2946 32 2946 21 q 2952 58 2946 44 q 2965 90 2958 71 q 2978 138 2972 110 q 2985 210 2985 167 l 2985 478 q 2949 535 2953 511 q 2985 592 2944 560 m 2376 592 l 2469 668 q 2495 686 2481 678 q 2525 694 2510 694 q 2551 681 2540 694 q 2561 629 2561 667 l 2561 210 q 2567 138 2561 167 q 2581 90 2574 110 q 2594 58 2588 71 q 2600 32 2600 44 q 2596 17 2600 24 q 2584 5 2592 10 q 2561 0 2576 0 l 2376 0 q 2357 4 2365 0 q 2344 14 2350 7 q 2338 32 2338 21 q 2344 58 2338 44 q 2357 90 2350 71 q 2370 138 2364 110 q 2376 210 2376 167 l 2376 478 q 2340 535 2344 511 q 2376 592 2336 560 m 1829 438 q 1840 324 1829 367 q 1868 257 1851 281 q 1904 226 1885 233 q 1940 218 1924 218 q 1976 226 1957 218 q 2013 257 1996 233 q 2040 324 2029 281 q 2051 438 2051 367 q 2040 552 2051 508 q 2013 621 2029 596 q 1976 654 1996 646 q 1940 663 1957 663 q 1904 654 1924 663 q 1868 621 1885 646 q 1840 552 1851 596 q 1829 438 1829 508 m 2469 1042 q 2558 1004 2522 1042 q 2594 914 2594 967 q 2585 865 2594 888 q 2558 824 2575 842 q 2519 797 2542 807 q 2469 788 2496 788 q 2380 824 2417 788 q 2343 914 2343 861 q 2353 963 2343 940 q 2380 1003 2363 986 q 2420 1031 2397 1021 q 2469 1042 2443 1042 m 1339 100 q 1355 237 1344 160 q 1369 418 1365 314 l 1369 442 q 1342 422 1358 433 q 1306 397 1325 411 q 1269 367 1288 385 q 1235 326 1250 350 q 1210 271 1219 303 q 1200 197 1200 239 q 1203 162 1200 182 q 1213 123 1206 142 q 1235 91 1221 104 q 1272 78 1249 78 q 1308 84 1292 78 q 1339 100 1324 90 z "}}}
